<?xml version="1.0" encoding="UTF-8" standalone="no"?>
<!DOCTYPE svg PUBLIC "-//W3C//DTD SVG 1.1//EN" "http://www.w3.org/Graphics/SVG/1.1/DTD/svg11.dtd">
<svg width="100%" height="100%" viewBox="0 0 800 800" version="1.1" xmlns="http://www.w3.org/2000/svg" xmlns:xlink="http://www.w3.org/1999/xlink" xml:space="preserve" xmlns:serif="http://www.serif.com/" style="fill-rule:evenodd;clip-rule:evenodd;stroke-linejoin:round;stroke-miterlimit:2;">
    <g>
        <path d="M710.327,173.756L438.37,10.631C426.55,3.544 413.286,0 399.998,0C386.706,0 373.444,3.544 361.628,10.619L89.673,173.756C81.32,178.759 74.178,185.27 68.492,192.806L393.342,387.662C397.439,390.123 402.561,390.123 406.653,387.662L731.5,192.806C725.819,185.27 718.673,178.759 710.327,173.756ZM246.423,203.614C229.298,215.506 201.961,215.211 185.359,202.908C168.769,190.628 169.2,171.012 186.325,159.109C203.456,147.194 230.794,147.513 247.389,159.794C263.984,172.084 263.553,191.688 246.423,203.614ZM428.373,204.72C411.82,216.223 385.411,215.917 369.37,204.05C353.334,192.181 353.758,173.227 370.306,161.723C386.855,150.22 413.263,150.514 429.305,162.395C445.341,174.263 444.922,193.217 428.373,204.72ZM612.356,207.347C595.225,219.25 567.886,218.931 551.286,206.653C534.697,194.372 535.125,174.747 552.256,162.831C569.377,150.941 596.719,151.234 613.316,163.538C629.917,175.817 629.481,195.431 612.356,207.347Z" style="fill-rule:nonzero;"/>
        <path d="M384.587,403.697L59.386,208.63C55.542,217.695 53.452,227.562 53.452,237.723L53.452,562.855C53.452,589.063 67.197,613.341 89.673,626.833L361.628,789.945C370.736,795.409 380.697,798.741 390.869,800L390.869,414.788C390.869,410.244 388.484,406.028 384.587,403.697ZM118.508,577.713C99.67,567.447 84.4,543.852 84.4,525.014C84.4,506.177 99.67,499.23 118.508,509.495C137.345,519.763 152.611,543.356 152.611,562.195C152.611,581.033 137.345,587.98 118.508,577.713ZM118.508,387.297C99.67,377.017 84.4,353.423 84.4,334.597C84.4,315.759 99.67,308.813 118.508,319.08C137.345,329.345 152.611,352.941 152.611,371.78C152.611,390.605 137.345,397.563 118.508,387.297ZM308.93,681.497C290.098,671.231 274.827,647.636 274.827,628.797C274.827,609.972 290.097,603.025 308.93,613.291C327.767,623.558 343.033,647.152 343.033,665.978C343.033,684.819 327.767,691.764 308.93,681.497ZM308.93,491.081C290.098,480.814 274.827,457.22 274.827,438.381C274.827,419.542 290.097,412.597 308.93,422.864C327.767,433.13 343.033,456.725 343.033,475.562C343.033,494.402 327.767,501.347 308.93,491.081Z" style="fill-rule:nonzero;"/>
        <path d="M740.614,208.63L415.411,403.697C411.514,406.028 409.13,410.244 409.13,414.789L409.13,800C419.303,798.741 429.264,795.409 438.37,789.945L710.327,626.833C732.795,613.341 746.548,589.063 746.548,562.855L746.548,237.722C746.548,227.562 744.458,217.695 740.614,208.63ZM578.872,554.859C548.736,571.284 524.306,560.169 524.306,530.028C524.306,499.9 548.736,462.142 578.872,445.73C609.017,429.294 633.442,440.408 633.442,470.548C633.442,500.678 609.017,538.434 578.872,554.859Z" style="fill-rule:nonzero;"/>
    </g>
</svg>
